<?xml version="1.0" encoding="UTF-8"?>
<!DOCTYPE svg PUBLIC "-//W3C//DTD SVG 1.1//EN" "http://www.w3.org/Graphics/SVG/1.1/DTD/svg11.dtd">
<!-- Creator: CorelDRAW 2021 (64-Bit) -->
<svg xmlns="http://www.w3.org/2000/svg" xml:space="preserve" width="16px" height="18px" version="1.1" style="shape-rendering:geometricPrecision; text-rendering:geometricPrecision; image-rendering:optimizeQuality; fill-rule:evenodd; clip-rule:evenodd"
viewBox="0 0 14 17"
 xmlns:xlink="http://www.w3.org/1999/xlink"
 xmlns:xodm="http://www.corel.com/coreldraw/odm/2003">
 <defs>
  <style type="text/css">
   <![CDATA[
    .fil0 {fill:#EC3337}
   ]]>
  </style>
 </defs>
 <g id="Layer_x0020_1">
  <metadata id="CorelCorpID_0Corel-Layer"/>
  <path class="fil0" d="M0 7c0,-1 1,-1 2,-1l0 0c0,0 0,0 0,0 1,0 2,0 2,0 0,0 0,-1 0,-2 1,-2 1,-4 2,-4 1,0 1,1 1,1 0,0 0,0 0,0 0,0 0,1 0,1 0,0 1,0 2,0 0,0 1,0 1,0 1,0 2,0 2,0 1,1 2,1 2,2 0,1 0,2 0,3 0,1 0,2 -1,3l0 0c0,1 0,1 0,1 -1,1 -1,1 -1,1 0,1 0,1 -1,1 -1,2 -2,2 -3,2 0,0 0,0 -1,0 -1,0 -1,1 -1,1 0,0 0,0 -1,0 0,1 0,1 -1,0 0,0 0,-1 0,-1 0,0 0,-1 0,-1 0,-1 0,-1 0,-2l0 0c0,0 0,-1 0,-1 0,-1 0,-2 0,-2 -1,-1 -1,-1 -2,-1l0 0c-1,0 -2,0 -2,0 0,0 0,0 0,-1 0,0 0,0 0,0zm7 6c0,0 0,0 0,0 1,0 1,0 2,-1 0,0 0,-1 1,-1 0,-1 1,-2 2,-4 0,-1 0,-2 0,-2 0,-1 -2,-1 -3,-1 0,0 0,0 0,0 -1,0 -1,0 -1,0 0,0 0,0 -1,0 0,0 0,0 0,1 0,0 0,0 0,1 0,2 0,3 0,5l0 0c0,0 0,0 0,0 0,1 0,2 0,2z"/>
 </g>
</svg>
