<?xml version="1.0" encoding="UTF-8"?>
<!DOCTYPE svg PUBLIC "-//W3C//DTD SVG 1.1//EN" "http://www.w3.org/Graphics/SVG/1.1/DTD/svg11.dtd">
<!-- Creator: CorelDRAW 2021 (64-Bit) -->
<svg xmlns="http://www.w3.org/2000/svg" xml:space="preserve" width="190px" height="50px" version="1.1" style="shape-rendering:geometricPrecision; text-rendering:geometricPrecision; image-rendering:optimizeQuality; fill-rule:evenodd; clip-rule:evenodd"
viewBox="0 0 1610 425"
 xmlns:xlink="http://www.w3.org/1999/xlink"
 xmlns:xodm="http://www.corel.com/coreldraw/odm/2003">
 <defs>
  <style type="text/css">
   <![CDATA[
    .fil0 {fill:#EC3337}
    .fil1 {fill:#FEFE00}
    .fil2 {fill:#FEFEFE;fill-rule:nonzero}
   ]]>
  </style>
 </defs>
 <g id="Layer_x0020_1">
  <metadata id="CorelCorpID_0Corel-Layer"/>
  <g id="_1331079013824">
   <path class="fil0" d="M204 269c-8,-1 -15,-4 -21,-7l-1 0c-3,-3 -5,-5 -6,-8 -2,-2 -3,-5 -3,-9 -2,-26 7,-34 22,-35 6,0 14,1 23,2 3,0 6,1 9,1 1,0 3,0 3,0 1,-1 1,-2 2,-3 0,-2 0,-3 0,-5 -1,-5 -3,-9 -5,-10 -6,-5 -11,-1 -17,2 -5,4 -10,7 -15,3 -5,-4 -6,-8 -5,-11 0,-3 2,-6 5,-8 2,-3 6,-4 9,-6 13,-5 30,-6 39,0 12,7 12,32 11,46 0,2 0,3 0,4 0,2 0,5 0,7 1,17 1,38 -23,39 -8,0 -18,0 -27,-2zm-8 -25c3,1 7,2 11,3 2,0 5,1 7,1 3,0 5,0 7,-1 3,0 5,-2 6,-4 2,-2 2,-4 2,-7 0,0 -1,0 -2,-1 -3,-1 -7,-2 -12,-2 -4,-1 -9,-1 -13,0 -4,0 -6,1 -7,3 -2,4 -1,6 1,8z"/>
   <path class="fil0" d="M31 150c3,-4 9,-7 17,-8l0 0c2,0 3,0 5,0 7,0 17,0 20,-3 3,-3 5,-12 7,-23 4,-20 9,-44 23,-44 8,0 9,6 9,12 0,1 0,2 0,3 -1,2 -1,3 -1,3 1,1 11,1 20,1 5,1 10,1 12,1 9,1 20,3 29,8 9,4 16,12 19,24 3,11 3,21 1,31 -1,9 -5,18 -9,28l-2 4c-4,9 -6,13 -8,16 -2,3 -3,5 -7,10 -2,2 -5,6 -8,10 -11,16 -23,18 -38,21 -2,1 -5,1 -8,2 -11,2 -13,6 -16,9 -1,2 -3,4 -6,6 -6,3 -10,1 -12,-4 -2,-4 -3,-11 -3,-16 0,-1 0,-3 -1,-4 -2,-15 -2,-19 -1,-26l0 0c1,-4 1,-8 2,-15 0,-14 -1,-21 -4,-24 -4,-3 -10,-4 -21,-4l0 0c-10,0 -16,-3 -19,-6 -2,-2 -2,-4 -2,-6 0,-2 0,-4 2,-6zm75 70c0,3 2,4 7,2 5,-2 10,-6 14,-10 4,-5 8,-10 12,-15 6,-8 16,-26 23,-43 4,-11 7,-22 5,-28 -2,-8 -26,-11 -37,-12 -1,0 -1,0 -3,0 -2,0 -3,0 -4,0 -5,-1 -8,-1 -11,-1 -3,0 -4,4 -3,14 0,3 1,6 1,9 2,23 4,36 -1,62l0 0c0,2 -1,3 -1,6 -2,5 -3,12 -2,16z"/>
   <path class="fil0" d="M310 9c2,0 5,-1 8,-2l0 0c11,-4 28,-6 46,-7 17,0 34,0 45,3 14,5 26,11 35,19 9,8 16,19 22,32l0 0c6,12 11,30 13,48 3,16 3,32 1,43l0 0c-2,6 -4,12 -6,17 -3,5 -6,9 -9,14l0 0c-23,33 -56,61 -87,87 -6,5 -11,9 -16,14 -18,15 -35,29 -52,43 -17,14 -34,27 -52,41 -19,15 -28,26 -40,40 -4,4 -8,9 -13,15l0 0 -8 7 -1 1c0,0 -2,1 -3,1 -2,1 -3,1 -5,0 -1,0 -2,0 -2,-1 -2,-1 -4,-3 -4,-4l0 0c-1,-2 -1,-5 -1,-7 1,-1 1,-1 1,-2 2,-2 2,-3 4,-3 0,-1 0,-1 1,-1 0,-1 0,-1 0,-1 1,0 1,-1 2,-1 1,-1 2,-2 2,-3 1,0 2,-1 3,-2l0 0 8 -10c0,0 0,-1 0,-1 0,-1 0,-2 3,-3 0,-3 1,-3 2,-4 0,0 0,0 0,-2 -2,-2 -5,-4 -7,-6 -1,-1 -1,-1 -2,-1 0,-1 -1,-1 -2,-2 0,0 -1,-1 -1,-1 0,0 0,0 0,0 -2,-2 -4,-3 -6,-5 -3,-2 -6,-4 -8,-6 -6,-4 -11,-8 -16,-11 -12,-9 -24,-18 -38,-26 -3,-2 -14,-9 -19,-13 -3,-1 -4,-2 -4,-2 -4,-1 -13,-7 -22,-13 -12,-8 -25,-17 -28,-20l0 0c-4,-3 -7,-6 -10,-9 -20,-18 -30,-27 -39,-55l0 0c-2,-8 -4,-16 -4,-23 -1,-7 -1,-15 -1,-23l0 -1c0,-40 0,-67 25,-102 11,-14 21,-25 33,-33 12,-8 26,-12 46,-13 5,0 23,1 38,2 10,1 19,2 21,3 3,1 3,1 4,1 1,0 2,0 4,1l0 0c0,0 1,0 2,1 1,0 1,0 2,0 1,1 2,1 3,1 6,2 13,3 18,6 2,1 3,2 5,2 8,5 17,9 23,17 6,8 10,7 14,4 2,-1 4,-3 7,-5 0,-1 1,-2 2,-2l0 0c19,-17 28,-21 49,-32l2 -1c4,-2 8,-3 12,-4zm-132 35c-3,-1 -5,-2 -6,-2 -12,-3 -28,-6 -44,-7 -14,-1 -27,-1 -37,1 -14,2 -27,10 -37,21 -13,12 -22,28 -28,43 -4,12 -7,31 -7,50 -1,21 1,42 4,54 8,22 12,26 25,38 4,3 7,6 12,10 4,4 12,10 20,15 8,6 17,11 23,14 11,5 22,11 32,17 11,7 21,14 30,21 3,3 17,16 25,23 3,3 4,4 5,4l0 0c3,2 3,2 4,3 0,0 0,0 1,1l0 0c2,1 3,2 5,3 1,1 2,2 4,4 1,0 2,2 3,3 3,3 7,7 9,7 0,0 19,-16 27,-23l0 0c2,-2 4,-3 4,-3l9 -8c64,-54 142,-119 188,-184 6,-10 9,-22 10,-34 1,-15 -2,-30 -6,-43 -2,-6 -4,-11 -7,-15 -11,-21 -28,-32 -47,-37 -20,-4 -42,-2 -63,5 -10,3 -19,7 -28,12 -3,1 -5,3 -8,4 -4,3 -8,5 -12,7 -9,4 -16,7 -23,11 -7,4 -14,8 -23,14l0 0c-2,2 -4,4 -5,6 -2,4 -4,6 -9,7 -11,1 -12,-8 -13,-14 0,-2 0,-4 -1,-5 -6,-12 -23,-18 -36,-23z"/>
   <path class="fil0" d="M317 265c-2,-1 -3,-2 -3,-2l-1 -2c-1,-9 -1,-19 -1,-29 0,-7 0,-14 -1,-21 0,-8 -1,-12 -1,-12 0,0 -2,3 -7,10l-3 4c-9,13 -10,15 -13,34 -1,4 -5,9 -9,10 -2,1 -4,2 -6,1 -2,0 -4,-1 -6,-3 -3,-4 -4,-12 -1,-26 3,-13 4,-21 4,-32 0,-3 0,-6 0,-9 0,-4 2,-14 5,-22 2,-5 5,-9 9,-10 8,-1 11,3 12,8 1,4 0,9 -1,12 -2,10 -4,13 -3,13 0,0 2,-2 4,-5 3,-3 7,-6 10,-8l1 0c12,-4 19,1 24,11 7,15 6,41 6,53 0,2 0,4 0,5 0,2 0,3 0,5 0,8 0,15 -8,18 -2,0 -3,0 -4,0 -1,0 -2,0 -3,-1 -2,0 -3,-1 -4,-2z"/>
   <path class="fil1" d="M326 95c14,9 3,23 -3,39 -11,29 -8,25 17,8 43,-30 22,-11 58,5 16,7 -9,-35 -1,-45 21,-25 65,-27 -8,-32 -15,-1 -6,-23 -16,-32 -9,-8 -19,29 -25,30 -32,8 -75,-5 -22,27z"/>
  </g>
  <path class="fil2" d="M624 255c-10,0 -18,-2 -25,-7 -7,-4 -12,-11 -16,-19 -4,-9 -5,-20 -5,-34 0,-14 1,-25 5,-34 3,-8 8,-15 15,-19 7,-4 16,-7 26,-7 11,0 20,3 29,8 8,5 15,12 20,20 5,9 8,20 8,32 0,12 -3,23 -8,32 -5,9 -12,16 -20,20 -9,5 -18,8 -29,8zm-73 39l0 -157 39 0 0 20 0 38 2 38 0 61 -41 0zm64 -71c5,0 9,-2 13,-4 3,-2 6,-5 8,-9 3,-4 4,-9 4,-15 0,-6 -1,-11 -4,-15 -2,-4 -5,-7 -8,-9 -4,-2 -8,-3 -13,-3 -4,0 -8,1 -12,3 -3,2 -6,5 -8,9 -3,4 -4,9 -4,15 0,6 1,11 4,15 2,4 5,7 8,9 4,2 8,4 12,4z"/>
  <path id="_1" class="fil2" d="M699 253l0 -158 41 0 0 75 -10 -9c5,-9 11,-15 19,-19 7,-4 16,-7 26,-7 8,0 17,2 24,6 7,4 13,9 17,17 4,7 6,17 6,29l0 66 -40 0 0 -60c0,-8 -2,-14 -5,-18 -4,-3 -8,-5 -14,-5 -4,0 -8,1 -12,3 -3,2 -6,4 -8,8 -2,4 -3,10 -3,16l0 56 -41 0z"/>
  <path id="_2" class="fil2" d="M918 253l0 -22 -3 -5 0 -40c0,-6 -2,-11 -6,-14 -4,-4 -10,-6 -18,-6 -6,0 -11,1 -17,3 -6,2 -11,4 -15,7l-13 -27c6,-4 14,-8 23,-10 10,-2 19,-4 28,-4 18,0 33,5 43,13 11,9 16,22 16,41l0 64 -38 0zm-34 2c-9,0 -17,-2 -23,-5 -7,-3 -12,-7 -15,-13 -3,-5 -5,-11 -5,-18 0,-7 2,-13 5,-18 4,-5 10,-9 17,-12 8,-3 17,-4 29,-4l27 0 0 21 -21 0c-7,0 -11,1 -14,3 -3,2 -4,5 -4,8 0,4 1,7 4,9 3,2 7,3 11,3 5,0 9,-1 12,-3 4,-2 7,-6 8,-10l6 15c-2,8 -7,14 -13,18 -6,4 -14,6 -24,6z"/>
  <path id="_3" class="fil2" d="M981 253l0 -116 39 0 0 33 -8 -10c4,-8 10,-14 18,-18 7,-4 15,-7 24,-7 11,0 20,3 28,8 7,6 13,14 15,25l-13 -3c4,-9 11,-16 19,-22 8,-5 18,-8 29,-8 8,0 16,2 23,6 7,4 13,9 17,17 4,7 6,17 6,29l0 66 -40 0 0 -60c0,-8 -2,-14 -5,-18 -3,-3 -7,-5 -13,-5 -4,0 -7,1 -10,2 -3,2 -6,5 -7,9 -2,4 -3,9 -3,14l0 58 -40 0 0 -60c0,-8 -2,-14 -5,-18 -3,-3 -7,-5 -13,-5 -4,0 -7,1 -10,2 -3,2 -6,5 -8,9 -1,4 -2,9 -2,14l0 58 -41 0z"/>
  <path id="_4" class="fil2" d="M1255 255c-10,0 -20,-3 -28,-8 -9,-5 -16,-11 -21,-20 -5,-9 -7,-20 -7,-32 0,-12 2,-23 7,-32 5,-9 12,-15 21,-20 8,-5 18,-8 28,-8 10,0 19,3 26,7 7,4 12,11 15,19 4,9 6,20 6,34 0,14 -2,25 -6,34 -3,8 -8,15 -15,19 -7,5 -15,7 -26,7zm9 -32c4,0 9,-2 12,-4 4,-2 7,-5 9,-9 2,-4 3,-9 3,-15 0,-6 -1,-11 -3,-15 -2,-4 -5,-7 -9,-9 -3,-2 -8,-3 -12,-3 -5,0 -9,1 -13,3 -3,2 -6,5 -8,9 -2,4 -3,9 -3,15 0,6 1,11 3,15 2,4 5,7 8,9 4,2 8,4 13,4zm25 30l0 -20 0 -38 -2 -38 0 -62 41 0 0 158 -39 0z"/>
  <path id="_5" class="fil2" d="M1424 253l0 -22 -3 -5 0 -40c0,-6 -1,-11 -5,-14 -4,-4 -11,-6 -19,-6 -6,0 -11,1 -17,3 -6,2 -10,4 -14,7l-14 -27c7,-4 14,-8 24,-10 9,-2 18,-4 27,-4 19,0 33,5 43,13 11,9 16,22 16,41l0 64 -38 0zm-34 2c-9,0 -17,-2 -23,-5 -7,-3 -11,-7 -15,-13 -3,-5 -5,-11 -5,-18 0,-7 2,-13 6,-18 3,-5 9,-9 16,-12 8,-3 18,-4 29,-4l28 0 0 21 -22 0c-7,0 -11,1 -14,3 -2,2 -4,5 -4,8 0,4 2,7 4,9 3,2 7,3 11,3 5,0 9,-1 12,-3 4,-2 7,-6 8,-10l6 15c-2,8 -6,14 -12,18 -7,4 -15,6 -25,6z"/>
  <path id="_6" class="fil2" d="M1487 253l0 -116 39 0 0 33 -7 -9c4,-9 10,-15 18,-19 7,-4 16,-7 26,-7 9,0 17,2 24,6 7,4 13,9 17,17 4,7 6,17 6,29l0 66 -40 0 0 -60c0,-8 -2,-14 -5,-18 -4,-3 -8,-5 -14,-5 -4,0 -8,1 -12,3 -3,2 -6,4 -8,8 -2,4 -3,10 -3,16l0 56 -41 0z"/>
 </g>
</svg>
