<?xml version="1.0" encoding="UTF-8"?>
<!DOCTYPE svg PUBLIC "-//W3C//DTD SVG 1.1//EN" "http://www.w3.org/Graphics/SVG/1.1/DTD/svg11.dtd">
<!-- Creator: CorelDRAW 2021 (64-Bit) -->
<svg xmlns="http://www.w3.org/2000/svg" xml:space="preserve" width="159px" height="42px" version="1.1" style="shape-rendering:geometricPrecision; text-rendering:geometricPrecision; image-rendering:optimizeQuality; fill-rule:evenodd; clip-rule:evenodd"
viewBox="0 0 1348 356"
 xmlns:xlink="http://www.w3.org/1999/xlink"
 xmlns:xodm="http://www.corel.com/coreldraw/odm/2003">
 <defs>
  <style type="text/css">
   <![CDATA[
    .fil0 {fill:#EC3337}
    .fil1 {fill:#FEFE00}
    .fil2 {fill:#373435;fill-rule:nonzero}
   ]]>
  </style>
 </defs>
 <g id="Layer_x0020_1">
  <metadata id="CorelCorpID_0Corel-Layer"/>
  <g id="_1330966529040">
   <path class="fil0" d="M171 225c-7,-1 -13,-3 -18,-6l0 0c-3,-2 -5,-4 -6,-6 -1,-2 -2,-5 -2,-8 -2,-22 6,-28 18,-29 6,0 12,0 19,1 3,1 6,1 8,1 1,0 2,0 3,0 0,-1 1,-1 1,-2 0,-2 0,-3 0,-5 -1,-3 -3,-7 -4,-8 -5,-4 -10,-1 -14,2 -5,3 -9,6 -13,2 -4,-3 -5,-6 -4,-9 0,-3 2,-5 4,-7 2,-2 5,-3 8,-5 10,-4 25,-5 32,0 10,7 10,27 10,39 0,1 0,3 0,4 0,1 0,3 0,5 0,15 1,32 -20,33 -6,0 -14,0 -22,-2zm-7 -21c3,1 6,2 9,3 2,0 4,0 6,0 3,1 5,0 6,0 2,0 4,-2 5,-4 1,-1 2,-3 2,-5 0,0 -1,-1 -2,-1 -3,-1 -6,-2 -10,-2 -4,-1 -8,-1 -11,0 -3,0 -5,1 -6,3 -1,3 0,5 1,6z"/>
   <path class="fil0" d="M26 126c2,-4 8,-6 14,-7l0 0c1,0 3,0 5,0 5,0 14,0 16,-3 2,-2 4,-10 6,-19 3,-17 7,-37 19,-37 7,1 8,6 8,10 -1,1 -1,2 -1,3 0,2 0,2 0,3 1,0 9,0 17,0 4,1 8,1 10,1 7,1 16,3 24,6 7,4 14,11 16,20 2,10 2,18 1,26 -1,8 -4,16 -8,24l-2 4c-3,7 -4,10 -6,13 -2,2 -3,4 -6,8 -2,2 -4,5 -7,9 -9,13 -19,15 -31,17 -3,1 -5,1 -8,2 -8,2 -10,5 -12,7 -2,2 -3,3 -6,5 -5,3 -8,1 -10,-3 -1,-4 -2,-9 -2,-13 0,-2 -1,-3 -1,-4 -2,-12 -2,-16 -1,-22l0 0c1,-3 1,-6 2,-12 0,-12 -1,-17 -4,-20 -3,-3 -8,-3 -17,-3l0 0c-9,-1 -14,-3 -16,-5 -2,-2 -2,-3 -2,-5 0,-2 1,-4 2,-5zm62 58c1,2 2,3 7,2 4,-2 8,-5 11,-9 4,-4 7,-8 10,-12 5,-7 14,-22 19,-36 4,-10 6,-18 5,-24 -2,-7 -22,-8 -31,-9 -1,0 -1,0 -3,-1 -1,0 -2,0 -3,0 -4,0 -7,-1 -9,0 -3,0 -4,3 -3,12 0,2 1,5 1,7 2,19 3,30 -1,52l0 0c0,1 0,3 -1,4 -1,5 -3,11 -2,14z"/>
   <path class="fil0" d="M259 8c2,-1 5,-1 7,-2l0 0c9,-3 24,-5 39,-6 14,0 28,0 37,3 12,3 22,8 29,15 8,7 14,16 19,27l0 0c5,11 9,26 11,41 2,13 3,26 1,36l0 0c-2,5 -4,9 -6,13 -2,4 -4,8 -7,13l0 0c-19,27 -47,50 -73,72 -4,4 -9,8 -13,12 -15,12 -29,24 -43,36 -15,11 -29,23 -44,34 -16,13 -24,22 -34,34 -3,3 -6,7 -10,12l0 0 -7 6 -1 1c0,0 -1,0 -3,1 -1,0 -2,0 -4,0 -1,0 -1,-1 -2,-1 -1,-1 -2,-2 -3,-4l0 0c-1,-2 -1,-3 0,-5 0,-1 0,-1 1,-2 1,-2 1,-2 2,-3 1,0 1,0 1,-1 1,0 1,0 1,0 0,-1 1,-1 1,-1 1,-1 1,-2 2,-2 1,-1 1,-2 2,-2l0 -1 7 -8c0,0 0,0 0,0 0,-2 0,-2 2,-3 1,-2 1,-3 2,-3 0,0 0,-1 0,-2 -2,-1 -4,-3 -6,-5 0,-1 -1,-1 -1,-1 -1,0 -1,-1 -2,-2 0,0 0,0 -1,0 0,0 0,0 0,-1 -1,-1 -3,-2 -5,-3 -2,-2 -5,-4 -6,-5 -6,-4 -10,-7 -14,-10 -10,-7 -20,-15 -32,-21 -2,-2 -11,-8 -16,-11 -2,-1 -3,-2 -3,-2 -3,-1 -11,-6 -18,-11 -10,-6 -21,-14 -24,-17l0 0c-3,-2 -6,-5 -9,-7 -16,-15 -25,-23 -32,-47l0 0c-2,-6 -3,-12 -3,-19 -1,-6 -1,-12 -1,-19l0 -1c0,-33 0,-56 21,-85 9,-12 17,-21 28,-28 10,-6 22,-10 38,-10 4,0 19,0 31,1 9,1 17,2 19,3 2,1 2,1 3,1 1,0 1,0 3,0l0 0c1,1 1,1 2,1 0,0 1,1 1,1 1,0 2,0 3,0 5,2 10,3 15,5 2,1 3,2 4,2 7,4 14,7 20,14 5,6 8,6 12,4 1,-1 3,-3 5,-5 0,0 1,-1 2,-2l0 0c16,-14 23,-17 41,-26l2 -1c3,-2 6,-2 9,-3zm-110 29c-2,-1 -4,-2 -5,-2 -10,-3 -24,-5 -37,-6 -11,-1 -23,-1 -31,1 -12,2 -22,9 -31,17 -10,11 -18,24 -23,37 -4,10 -6,26 -6,42 -1,17 1,35 3,45 7,18 10,21 21,31 3,3 6,6 10,9 4,4 10,8 17,12 7,5 14,10 19,12 9,4 18,9 27,15 9,5 17,11 25,17 3,2 14,13 21,19 3,2 4,4 4,4l0 0c2,1 3,1 3,2 0,0 1,0 1,1l0 0c2,1 3,2 4,3 1,0 2,1 4,3 0,0 1,1 2,2 3,3 6,6 8,6 0,0 16,-13 23,-19l0 0c1,-2 2,-3 3,-3l7 -6c54,-45 119,-100 157,-154 6,-9 8,-19 9,-29 1,-12 -1,-25 -5,-36 -2,-5 -3,-9 -6,-13 -9,-17 -23,-26 -39,-30 -17,-4 -35,-2 -53,4 -8,3 -16,6 -23,10 -2,1 -5,2 -7,4 -3,1 -7,3 -10,5 -8,3 -14,6 -20,10 -5,3 -11,6 -18,11l0 0c-2,2 -4,4 -5,5 -2,3 -3,5 -8,6 -8,0 -9,-6 -10,-12 0,-1 0,-3 -1,-4 -5,-10 -19,-15 -30,-19z"/>
   <path class="fil0" d="M265 222c-1,-1 -2,-2 -3,-2l0 -2c-1,-7 -1,-15 -1,-24 0,-6 0,-12 -1,-17 0,-7 0,-11 0,-11 0,0 -2,3 -6,9l-3 4c-8,10 -9,12 -11,27 -1,4 -4,8 -8,9 -1,1 -3,1 -5,1 -1,0 -3,-1 -4,-3 -3,-3 -4,-10 -1,-21 2,-11 3,-18 3,-28 0,-2 0,-4 0,-6 0,-4 1,-12 4,-19 2,-4 4,-8 8,-9 7,-1 9,3 10,7 0,4 -1,8 -1,10 -2,8 -3,11 -3,11 0,0 2,-2 4,-4 3,-2 6,-5 8,-6l1 -1c10,-3 16,1 20,9 6,13 5,35 5,45 0,2 0,3 0,4 0,1 0,3 0,4 0,7 0,13 -7,15 -1,0 -2,0 -3,0 -1,0 -2,0 -3,0 -1,-1 -2,-1 -3,-2z"/>
   <path class="fil1" d="M273 80c11,7 2,19 -3,32 -9,24 -7,21 15,7 36,-26 18,-10 48,4 13,6 -7,-30 -1,-37 18,-21 54,-23 -6,-28 -13,-1 -6,-19 -14,-26 -7,-7 -16,24 -21,25 -27,6 -63,-4 -18,23z"/>
  </g>
  <path class="fil2" d="M522 213c-8,0 -15,-2 -21,-5 -6,-4 -10,-9 -13,-17 -3,-7 -5,-16 -5,-28 0,-11 2,-21 5,-28 2,-7 7,-13 13,-16 5,-4 13,-6 21,-6 9,0 17,2 24,7 7,4 13,9 17,17 4,7 7,16 7,26 0,10 -3,19 -7,27 -4,7 -10,13 -17,17 -7,4 -15,6 -24,6zm-61 33l0 -131 33 0 0 16 0 32 1 32 0 51 -34 0zm54 -60c4,0 7,-1 10,-2 3,-2 6,-5 8,-8 1,-4 2,-8 2,-13 0,-5 -1,-9 -2,-12 -2,-4 -5,-6 -8,-8 -3,-2 -6,-3 -10,-3 -4,0 -7,1 -10,3 -3,2 -6,4 -7,8 -2,3 -3,7 -3,12 0,5 1,9 3,13 1,3 4,6 7,8 3,1 6,2 10,2z"/>
  <path id="_1" class="fil2" d="M585 212l0 -133 34 0 0 63 -8 -8c4,-7 9,-12 15,-15 7,-4 14,-6 22,-6 8,0 14,2 20,5 7,3 11,8 15,14 3,6 5,14 5,24l0 56 -34 0 0 -50c0,-7 -1,-12 -4,-15 -3,-3 -7,-5 -12,-5 -3,0 -6,1 -9,2 -3,2 -6,5 -7,8 -2,3 -3,7 -3,13l0 47 -34 0z"/>
  <path id="_2" class="fil2" d="M768 212l0 -18 -2 -5 0 -33c0,-5 -2,-10 -5,-12 -3,-3 -8,-5 -16,-5 -4,0 -9,1 -14,2 -4,2 -8,4 -12,7l-11 -23c5,-4 12,-7 20,-9 7,-2 15,-3 22,-3 16,0 28,4 37,11 8,7 13,19 13,34l0 54 -32 0zm-28 1c-8,0 -15,-1 -20,-4 -5,-2 -9,-6 -12,-10 -3,-5 -4,-10 -4,-16 0,-6 1,-11 4,-15 3,-4 8,-8 14,-10 7,-2 15,-3 25,-3l22 0 0 17 -18 0c-5,0 -9,1 -11,3 -2,2 -3,4 -3,7 0,3 1,5 3,7 2,2 5,3 9,3 4,0 7,-1 10,-3 3,-2 5,-5 7,-8l5 12c-2,7 -6,12 -11,15 -5,3 -12,5 -20,5z"/>
  <path id="_3" class="fil2" d="M821 212l0 -97 32 0 0 27 -6 -8c4,-7 8,-12 15,-15 6,-4 13,-6 20,-6 9,0 17,3 23,7 7,4 11,11 13,21l-11 -3c4,-7 9,-14 16,-18 7,-4 15,-7 24,-7 7,0 14,2 20,5 6,3 10,8 14,14 3,6 5,14 5,24l0 56 -34 0 0 -50c0,-7 -1,-12 -4,-15 -2,-3 -6,-5 -11,-5 -3,0 -6,1 -8,2 -3,2 -5,4 -6,7 -2,4 -2,8 -2,13l0 48 -34 0 0 -50c0,-7 -2,-12 -4,-15 -3,-3 -6,-5 -11,-5 -3,0 -6,1 -9,2 -2,2 -4,4 -6,7 -1,4 -2,8 -2,13l0 48 -34 0z"/>
  <path id="_4" class="fil2" d="M1051 213c-9,0 -17,-2 -24,-6 -8,-4 -13,-10 -18,-17 -4,-8 -6,-17 -6,-27 0,-10 2,-19 6,-26 5,-8 10,-14 18,-18 7,-4 15,-6 24,-6 8,0 15,2 21,6 5,3 10,9 13,16 3,7 4,17 4,28 0,12 -1,21 -4,28 -3,8 -7,13 -13,17 -6,3 -13,5 -21,5zm7 -27c4,0 7,-1 10,-2 3,-2 5,-5 7,-8 2,-4 3,-8 3,-13 0,-5 -1,-9 -3,-12 -2,-4 -4,-6 -7,-8 -3,-2 -6,-3 -10,-3 -4,0 -8,1 -11,3 -3,2 -5,4 -7,8 -2,3 -3,7 -3,12 0,5 1,9 3,13 2,3 4,6 7,8 3,1 7,2 11,2zm21 26l0 -17 0 -32 -2 -32 0 -52 34 0 0 133 -32 0z"/>
  <path id="_5" class="fil2" d="M1192 212l0 -18 -2 -5 0 -33c0,-5 -2,-10 -5,-12 -4,-3 -9,-5 -16,-5 -5,0 -9,1 -14,2 -5,2 -9,4 -12,7l-12 -23c6,-4 12,-7 20,-9 8,-2 15,-3 23,-3 16,0 28,4 36,11 9,7 13,19 13,34l0 54 -31 0zm-29 1c-7,0 -14,-1 -19,-4 -6,-2 -10,-6 -12,-10 -3,-5 -5,-10 -5,-16 0,-6 2,-11 5,-15 3,-4 8,-8 14,-10 6,-2 14,-3 24,-3l23 0 0 17 -18 0c-6,0 -9,1 -12,3 -2,2 -3,4 -3,7 0,3 1,5 4,7 2,2 5,3 9,3 3,0 7,-1 10,-3 3,-2 5,-5 7,-8l4 12c-2,7 -5,12 -10,15 -5,3 -12,5 -21,5z"/>
  <path id="_6" class="fil2" d="M1245 212l0 -97 32 0 0 27 -6 -8c3,-7 9,-12 15,-15 6,-4 14,-6 22,-6 7,0 14,2 20,5 6,3 11,8 14,14 4,6 6,14 6,24l0 56 -34 0 0 -50c0,-7 -2,-12 -4,-15 -3,-3 -7,-5 -12,-5 -4,0 -7,1 -10,2 -3,2 -5,5 -7,8 -2,3 -2,7 -2,13l0 47 -34 0z"/>
 </g>
</svg>
