<?xml version="1.0" encoding="UTF-8"?>
<!DOCTYPE svg PUBLIC "-//W3C//DTD SVG 1.1//EN" "http://www.w3.org/Graphics/SVG/1.1/DTD/svg11.dtd">
<!-- Creator: CorelDRAW 2021 (64-Bit) -->
<svg xmlns="http://www.w3.org/2000/svg" xml:space="preserve" width="242px" height="110px" version="1.1" style="shape-rendering:geometricPrecision; text-rendering:geometricPrecision; image-rendering:optimizeQuality; fill-rule:evenodd; clip-rule:evenodd"
viewBox="0 0 11865 5396"
 xmlns:xlink="http://www.w3.org/1999/xlink"
 xmlns:xodm="http://www.corel.com/coreldraw/odm/2003">
 <defs>
  <style type="text/css">
   <![CDATA[
    .fil0 {fill:#EC1B24}
   ]]>
  </style>
 </defs>
 <g id="Layer_x0020_1">
  <metadata id="CorelCorpID_0Corel-Layer"/>
  <path class="fil0" d="M4753 1784c65,-25 182,-44 248,-35 78,11 161,11 222,69 102,97 39,252 -12,357 -13,25 -26,51 -39,77 2,-2 3,-4 4,-5 24,-31 48,-62 70,-94 22,-29 43,-59 65,-89 26,-34 52,-71 99,-77 17,-2 31,0 47,5l39 15c48,18 73,70 59,118l-38 128 118 -113c20,-19 44,-28 72,-26 27,1 50,13 68,34 27,31 33,78 37,118 4,35 7,70 9,105l254 -323c21,-28 52,-41 87,-37 34,4 62,24 76,55l25 53c6,13 8,24 9,38l37 1074c2,51 -36,94 -86,100l-37 3c-27,3 -52,-4 -72,-22 -21,-18 -33,-40 -34,-68l-47 -771 -234 311c-24,32 -63,46 -102,35 -39,-11 -66,-42 -71,-82l-26 -226 -256 241c-29,28 -71,35 -107,17 -37,-17 -58,-53 -55,-94l5 -71c-15,15 -30,31 -46,47 -68,67 -205,206 -303,217 -38,6 -79,17 -117,24 -73,14 -147,23 -220,24 -187,2 -372,-64 -394,-276 -8,-84 -14,-181 40,-252 51,-67 134,-85 213,-98 126,-21 270,-42 397,-26 35,4 84,9 118,0 21,-6 28,-15 33,-37 14,-71 53,-118 88,-178 6,-10 11,-20 15,-29l-296 45c-31,4 -61,-5 -83,-28 -30,-30 -58,-66 -63,-111 -7,-57 26,-105 79,-125 23,-9 48,-13 73,-14 10,-1 22,-1 32,-3zm4199 125l204 -180c-29,-38 -26,-90 6,-124 15,-17 35,-27 56,-30l69 -157c15,-35 47,-57 85,-58 46,-2 76,22 113,42 41,23 61,71 46,116 -7,19 -19,35 -34,47l-25 98c146,-139 332,-217 527,-102 181,106 130,410 91,578 -24,104 -55,207 -91,307 -25,68 -52,142 -85,207 -11,23 -29,39 -54,48l-54 19c-30,11 -61,6 -88,-12 -26,-19 -40,-47 -40,-79 0,-138 31,-217 94,-334 51,-96 69,-161 67,-272 -1,-42 1,-221 -21,-261 -33,1 -111,48 -132,62 -136,89 -239,298 -309,441 -22,44 -46,91 -61,138 -16,47 -27,100 -39,149 -13,54 -23,114 -34,169 -6,33 -13,67 -19,100 -4,19 -9,50 -16,67 -14,31 -40,51 -74,56 -82,13 -78,9 -155,-16 -48,-16 -75,-65 -64,-114l154 -653c-94,95 -189,189 -286,280 -150,141 -443,409 -658,458 -24,14 -53,17 -79,8 -63,-3 -119,-29 -158,-81 -98,-126 -38,-354 8,-491 40,-117 122,-313 206,-405 137,-150 189,-185 397,-184 51,1 104,5 154,16 15,3 30,8 44,12 8,-7 16,-15 22,-20 31,-29 61,-58 91,-87 22,-22 27,-98 27,-127 -1,-48 -12,-122 -40,-161 -29,-42 -62,-65 -112,-73 -61,-10 -137,2 -197,10 -42,6 -70,5 -104,-2 -10,12 -21,27 -28,35 -23,31 -41,63 -66,94 -21,25 -46,48 -76,61 -67,26 -133,-11 -154,-78 -41,-128 36,-232 142,-297 50,-31 141,-72 200,-80 132,-17 287,-13 412,33 214,79 300,257 272,480 -18,140 -51,252 -134,347zm-101 90c-1,0 -1,1 -2,1 -27,19 -59,48 -85,77l87 -78zm-210 187c-43,8 -86,-11 -111,-48 -24,-38 -27,-88 -18,-130 1,-4 2,-7 3,-11 -22,5 -43,13 -61,21 -69,29 -163,92 -199,158 -72,128 -167,331 -157,492l543 -482zm-7813 2690c17,-18 42,-28 67,-29l26 -11c9,-4 17,-6 25,-7 15,-4 31,-9 45,-14 34,-10 68,-21 102,-33 95,-31 189,-62 284,-94 94,-32 188,-65 281,-97 34,-12 67,-24 100,-36 15,-6 32,-11 46,-18 137,-65 305,-100 453,-134 135,-30 293,-62 419,-118 151,-67 345,-101 507,-132 90,-17 180,-33 269,-53 75,-16 153,-35 226,-61 133,-49 302,-66 443,-86 159,-22 327,-46 480,-97 63,-21 142,-34 208,-45 97,-16 195,-31 292,-45 93,-14 187,-29 280,-45 35,-7 115,-19 147,-34 34,-18 134,-31 171,-37 99,-16 199,-31 298,-46 174,-27 350,-51 524,-81 335,-57 676,-124 1017,-131 23,0 53,-6 75,-10 42,-8 84,-17 126,-25 76,-16 163,-38 241,-45 83,-8 172,-27 255,-42 74,-14 170,-35 247,-36l799 -113c27,-20 61,-25 92,-13l2377 -335c53,-8 102,29 109,82l5 35c8,52 -29,101 -81,109l-5355 792c-28,4 -55,-4 -75,-20l-3995 825c-10,11 -24,20 -39,26l-2190 768c-31,11 -62,7 -88,-12 -27,-19 -41,-47 -41,-79l0 -2c0,-39 22,-73 58,-89l770 -332zm2724 -2976c26,-23 54,-46 83,-67 131,-95 286,-153 448,-110 112,30 163,124 157,235 -4,91 -43,188 -85,268 -41,78 -95,160 -157,223 -59,61 -150,126 -233,75l-6 -2c-48,-23 -68,-81 -46,-129l41 -85c14,-30 42,-49 73,-54l76 -257c-204,66 -411,262 -456,448 -38,153 -98,299 -137,450 -18,67 -45,147 -90,200 -49,57 -125,81 -191,38 -99,-64 -94,-220 -58,-318 56,-149 134,-292 201,-437 57,-125 118,-273 126,-411 8,-156 13,-310 13,-466 0,-36 -5,-75 -8,-110 -6,-54 -13,-107 -20,-161 -6,-50 -12,-100 -18,-150 -4,-30 -10,-74 -7,-104 6,-48 46,-84 95,-84l91 -1c54,-1 97,42 98,95l10 914zm3889 -37c8,-25 15,-52 22,-73 22,-71 43,-142 63,-214 21,-72 40,-144 59,-217 10,-37 24,-84 29,-123 17,-121 68,-239 110,-353 44,-119 80,-236 85,-363 1,-27 15,-66 24,-92 14,-40 28,-79 43,-118 14,-40 54,-154 84,-195 -1,-17 -1,-29 7,-50 22,-54 75,-73 129,-62 92,18 139,124 105,208 -25,62 -43,126 -69,187 -11,25 -19,58 -27,84 -19,61 -36,122 -54,182 -49,172 -98,345 -145,517 -48,172 -95,343 -142,515 -16,59 -32,119 -48,179 -6,25 -14,52 -19,77l-2 31c-1,27 -14,51 -32,67l-35 811c-3,53 -46,94 -99,93l-52 -1c-35,-1 -65,-21 -82,-49 -53,91 -136,171 -215,223 -68,45 -152,82 -235,84 -99,1 -179,-50 -221,-141 -54,-121 -69,-346 -70,-478 -2,-140 8,-382 104,-491 109,-125 232,-234 404,-246 56,-4 110,2 166,6 38,3 75,4 113,2zm-284 260c-38,13 -73,33 -105,60 -118,103 -143,285 -141,433 1,86 5,188 28,272 3,14 17,60 31,72 41,-3 137,-107 164,-138 33,-38 64,-78 95,-117 30,-39 64,-86 116,-93 14,-1 28,0 41,4l6 -509c-11,-1 -22,-2 -34,-3 2,5 3,9 4,15 7,30 -1,62 -23,86 -25,28 -60,38 -96,29 -46,-12 -76,-37 -83,-85 -2,-8 -3,-17 -3,-26zm-5078 -386c15,-10 30,-20 44,-29 106,-70 213,-136 323,-200 93,-55 212,-106 323,-84 95,19 158,86 188,176 46,139 11,339 -67,462 -263,414 -622,920 -1140,1007 -45,8 -90,14 -135,19 -7,0 -14,1 -22,1 -2,7 -5,14 -7,20 -15,39 -32,77 -52,114 -8,18 -15,41 -22,60 -13,38 -25,76 -37,114 -13,38 -25,77 -36,115 -6,19 -14,42 -18,62 -48,267 -160,528 -241,786 -15,50 -38,106 -88,130 -50,23 -107,4 -136,-43 -13,-20 -18,-44 -21,-68 -8,-93 30,-210 73,-291 8,-20 14,-43 20,-62 13,-40 25,-80 37,-120 19,-62 42,-130 56,-192 11,-49 29,-101 45,-150 24,-76 48,-152 72,-228 24,-75 48,-150 70,-225 5,-18 14,-44 20,-69l-82 -43c-47,-25 -65,-84 -40,-131l617 -1168c12,-24 32,-40 58,-47 26,-8 51,-5 75,8l99 56c9,6 18,12 24,20zm580 -47c-14,4 -32,14 -45,20 -32,16 -63,33 -94,51 -86,47 -170,98 -253,151 -55,36 -110,73 -164,112 0,0 0,0 1,0 40,44 30,100 -4,142 -11,13 -24,26 -36,39 -33,33 -68,66 -101,99 -49,49 -144,146 -167,208 -20,54 -104,227 -128,316 126,-15 232,-55 338,-132 60,-43 115,-93 167,-143 67,-64 131,-130 197,-193 27,-28 61,-79 83,-111 49,-71 95,-144 137,-219 42,-74 83,-153 111,-233 7,-21 27,-86 23,-115 -17,-2 -51,5 -65,8zm2018 952c-1,-6 -2,-11 -2,-17 -1,-25 7,-49 17,-72 3,-7 6,-14 10,-21l-346 30c20,73 82,99 171,101 42,1 97,-7 150,-21z"/>
 </g>
</svg>
