<?xml version="1.0" encoding="UTF-8"?>
<!DOCTYPE svg PUBLIC "-//W3C//DTD SVG 1.1//EN" "http://www.w3.org/Graphics/SVG/1.1/DTD/svg11.dtd">
<!-- Creator: CorelDRAW 2021 (64-Bit) -->
<svg xmlns="http://www.w3.org/2000/svg" xml:space="preserve" width="110px" height="114px" version="1.1" style="shape-rendering:geometricPrecision; text-rendering:geometricPrecision; image-rendering:optimizeQuality; fill-rule:evenodd; clip-rule:evenodd"
viewBox="0 0 2165 2242"
 xmlns:xlink="http://www.w3.org/1999/xlink"
 xmlns:xodm="http://www.corel.com/coreldraw/odm/2003">
 <defs>
  <style type="text/css">
   <![CDATA[
    .fil0 {fill:#009241}
    .fil3 {fill:#ED3237}
    .fil2 {fill:#F58634}
    .fil4 {fill:#FDFDFD}
    .fil1 {fill:#FFF212}
   ]]>
  </style>
 </defs>
 <g id="Layer_x0020_1">
  <metadata id="CorelCorpID_0Corel-Layer"/>
  <g id="_1331102386816">
   <path class="fil0" d="M1386 1068c-3,56 5,59 -7,132 -31,193 -134,372 -254,518 -11,14 -21,24 -33,37 -14,16 -54,60 -72,69l-3 4 1 -12c17,-158 -4,-291 -48,-439 -6,-22 -13,-42 -20,-63 -6,-17 -15,-46 -23,-60l-2 -2 -102 -94c-6,-6 -10,-8 -16,-14 -10,-10 -19,-17 -29,-27l-73 -68c-5,-5 -9,-7 -15,-13l-58 -54c-6,-6 -9,-7 -15,-13l-104 -97c-6,-5 -8,-7 -14,-12 -3,-3 -4,-5 -7,-8 -4,-3 -5,-3 -8,-6 -10,-9 -19,-20 -31,-28 -6,11 -18,18 -27,27 -27,28 -57,52 -85,80 -5,5 -9,7 -14,12l-185 172c-32,32 -67,62 -100,93 -9,8 -37,33 -42,41l118 110c22,22 46,40 68,62l58 55c4,4 5,4 9,7 23,22 44,43 68,63l51 47c16,16 49,47 67,62l237 219c14,11 54,53 67,63 15,11 53,48 68,62l34 31c22,20 45,44 68,63l101 93c11,12 56,54 68,62 13,-6 24,-21 34,-31l202 -190c4,-3 5,-5 9,-8 3,-3 5,-4 9,-7 14,-13 72,-71 84,-80 6,-5 11,-10 17,-16 7,-6 10,-9 17,-15l34 -33c6,-5 11,-11 17,-16l59 -56c4,-3 5,-4 9,-7 6,-6 11,-11 16,-16l44 -40c8,-8 15,-17 25,-24l101 -95c22,-22 45,-42 67,-64l68 -63c7,-6 11,-10 17,-16l160 -151c4,-3 5,-3 9,-7l34 -33c15,-14 39,-32 51,-49l-227 -211c-3,-3 -4,-5 -7,-7l-39 -35c-5,-5 -9,-10 -14,-15 -4,-3 -5,-3 -8,-6 -4,-3 -6,-5 -9,-8l-75 -71c-5,-5 -10,-10 -15,-14 -23,-18 -54,-51 -76,-71l-17 -14c-12,9 -34,32 -45,45 -32,36 -67,68 -100,102 -20,20 -58,54 -73,74 -7,9 -66,68 -74,74z"/>
   <path class="fil1" d="M925 1252l2 2c8,14 17,43 23,60 7,21 14,41 20,63 44,148 65,281 48,439 5,-4 4,-3 7,-14l14 -42c70,-228 76,-488 -8,-713 -32,-85 -63,-123 -96,-206 -82,-211 -72,-410 49,-600 23,-35 47,-64 74,-96 28,-32 57,-56 86,-84 9,-9 56,-44 59,-52 -4,1 -14,7 -19,10l-38 23c-27,17 -98,66 -123,89l-48 41c-7,5 -11,10 -16,15 -11,11 -20,20 -31,31 -5,5 -10,10 -14,15l-42 50c-27,33 -63,87 -84,128l-19 40c-23,54 -38,105 -47,166 -4,26 -8,87 -4,116 9,70 17,125 50,192l63 117c14,23 37,75 50,102l27 63c4,10 16,36 17,45z"/>
   <path class="fil2" d="M1203 9c-3,8 -50,43 -59,52 -29,28 -58,52 -86,84 -27,32 -51,61 -74,96 -121,190 -131,389 -49,600 33,83 64,121 96,206 84,225 78,485 8,713l-14 42c-3,11 -2,10 -7,14l-1 12 3 -4c3,-13 29,-62 38,-78 5,-9 8,-17 12,-27 18,-35 34,-71 50,-106 68,-150 133,-325 121,-496 -7,-101 -41,-160 -83,-228 -35,-57 -79,-144 -104,-207 -89,-230 -37,-399 95,-590l50 -66c4,-6 14,-15 15,-24 -5,2 -7,4 -11,7z"/>
   <path class="fil3" d="M1020 1824c18,-9 58,-53 72,-69 12,-13 22,-23 33,-37 120,-146 223,-325 254,-518 12,-73 4,-76 7,-132 0,-50 -22,-109 -46,-153l-129 -247c-82,-164 -114,-327 -56,-509 12,-40 32,-91 50,-128 4,-8 13,-23 15,-31l-1 0c-8,0 -3,0 -5,2 -1,9 -11,18 -15,24l-50 66c-132,191 -184,360 -95,590 25,63 69,150 104,207 42,68 76,127 83,228 12,171 -53,346 -121,496 -16,35 -32,71 -50,106 -4,10 -7,18 -12,27 -9,16 -35,65 -38,78z"/>
   <path class="fil4" d="M1361 1573l109 241 -145 -36c-1,-7 -23,-138 -28,-145l-51 47 18 89c-17,-3 -77,-23 -83,-23 -8,0 -35,30 -42,36 -5,5 -10,8 -14,14 9,5 102,27 126,33l18 7c7,24 21,136 28,147l41 -36c5,-5 11,-8 10,-17 -3,-26 -15,-59 -18,-87 19,6 40,11 59,16 45,13 20,18 90,-45l40 -38 -22 -49 59 -54c14,6 33,21 47,25 12,-12 39,-36 46,-45l-206 -111c-7,-4 -25,-14 -32,-16 -17,15 -33,34 -50,47z"/>
   <path class="fil4" d="M365 1261c-3,11 -18,16 -30,20 -13,5 -25,10 -41,13 -12,2 -88,10 -92,16l-4 10c-7,16 -11,35 16,32 20,-2 45,-8 65,-12 20,-3 131,-18 142,-10 -3,7 -9,7 -20,11 -22,6 -52,12 -75,17 -14,3 -39,5 -51,10 -13,5 -26,22 -21,40 27,11 117,-16 200,-5 -34,10 -105,9 -126,55 -23,51 87,52 122,47 -11,7 -33,25 -25,46 9,20 43,11 64,14 -9,5 -17,9 -22,17 -8,12 -1,24 8,28 21,10 51,7 77,7 -5,7 -9,14 -10,25 -1,14 -1,23 10,26 17,5 50,2 63,9 -10,6 -20,8 -28,16 -9,11 -5,21 7,26 18,8 56,9 78,8l5 -10c-9,-2 -57,-4 -52,-20 8,-9 18,-10 31,-13 17,-3 26,-2 25,-20 8,1 14,4 14,-7 1,-9 -4,-14 -8,-18 -9,-9 -22,-15 -35,-20 -28,-9 -61,-17 -90,-8 -2,-3 1,2 0,-2 -1,-5 1,-1 -2,-4 -17,-1 -46,-1 -53,-15 8,-23 62,-15 73,-20 8,-3 13,-10 13,-21 -34,-13 -99,4 -140,-13 8,-28 60,-1 85,-19 0,-13 -16,-23 -31,-24 -17,-1 -33,4 -48,8 1,-3 3,-6 5,-8 -28,-5 -76,5 -93,-14 -2,-25 45,-36 70,-41 25,-4 78,-7 99,-15 16,-5 15,-33 8,-38 -6,-4 -41,-4 -51,-5 -35,-1 -77,0 -110,-4 11,-5 43,-11 58,-16 17,-6 42,-17 33,-39 -6,-17 -36,-18 -57,-18 -24,0 -50,3 -74,1 13,-7 30,-13 42,-21 14,-9 18,-38 13,-45 -8,-11 -74,-27 -91,-36 5,0 15,0 18,-2 5,-3 2,1 4,-4 -6,-5 -20,-5 -29,-6 -21,-3 -24,3 -46,20 -11,8 -8,14 2,18 28,13 80,19 105,33z"/>
   <path class="fil4" d="M1610 1341c27,30 57,58 84,89 5,6 9,7 12,14 -24,-5 -116,-37 -149,-47 -11,-3 -27,18 -43,32 -7,6 -12,13 -20,19 4,10 43,48 53,59 4,4 7,8 11,12 7,8 14,15 22,23 8,9 12,15 22,23l66 71c6,-3 37,-35 42,-41l-118 -128 192 62 44 -43c-7,-9 -13,-14 -21,-23 -27,-29 -64,-66 -88,-93l-66 -70c-8,7 -38,34 -43,41z"/>
   <path class="fil4" d="M1801 1159c5,11 57,61 62,70 -2,5 -58,56 -62,58 -14,-12 -53,-61 -65,-66l-45 41c4,11 114,125 130,142 8,7 14,16 22,24 9,8 13,15 21,23 8,-4 17,-15 24,-21 7,-7 20,-15 24,-25 -5,-3 -70,-74 -75,-81 11,-12 60,-57 61,-58 14,12 26,29 39,40l39 41c4,-4 7,-6 11,-10 9,-8 21,-23 35,-32 -2,-5 -57,-65 -64,-72 -10,-9 -14,-14 -22,-23 -7,-8 -15,-15 -22,-23l-65 -70c-9,5 -33,30 -48,42z"/>
   <path class="fil4" d="M824 1829c-11,5 -28,5 -41,9 -11,4 -27,12 -24,26 4,19 58,22 79,23 -1,8 -34,43 15,65 20,9 48,11 70,10 12,-1 12,-3 15,-13 -19,-1 -40,-2 -56,-8 -37,-15 -17,-34 -15,-37 9,2 18,7 28,10 44,15 85,4 67,-21 -17,-24 -55,-31 -86,-25 -20,4 -23,13 -28,10 -1,0 -1,0 -1,0 -13,-7 -45,-3 -46,-20 12,-14 58,-4 64,-19 4,-11 -1,-18 -7,-21 -19,-8 -77,-11 -101,-11 7,-13 15,-9 31,-10 36,-2 77,-5 112,-10 13,-2 67,-9 41,-29 -12,-9 -59,-5 -76,-4 -46,4 -129,17 -144,61 -5,18 13,14 26,13 26,-3 51,-4 77,1z"/>
   <path class="fil0" d="M1474 1681c7,-4 31,-27 36,-33 -2,-2 2,1 -2,-3 -2,-1 -3,-2 -5,-3l-65 -36c2,9 32,71 36,75z"/>
   <path class="fil0" d="M560 1646c8,17 83,11 98,10 -6,-7 -36,-16 -48,-20 -20,-5 -42,-7 -50,10z"/>
   <path class="fil4" d="M960 1834c0,8 1,27 5,34 2,5 2,6 9,6 5,-10 5,-26 7,-38 2,-9 4,-13 -1,-19 -3,-3 -9,-9 -13,-10 -7,7 -7,15 -7,27z"/>
   <path class="fil4" d="M585 1485c0,15 -1,41 13,43 5,-6 6,-26 8,-37 2,-9 6,-25 -16,-29 -4,6 -5,13 -5,23z"/>
  </g>
 </g>
</svg>
