<?xml version="1.0" encoding="UTF-8"?>
<!DOCTYPE svg PUBLIC "-//W3C//DTD SVG 1.1//EN" "http://www.w3.org/Graphics/SVG/1.1/DTD/svg11.dtd">
<!-- Creator: CorelDRAW 2021 (64-Bit) -->
<svg xmlns="http://www.w3.org/2000/svg" xml:space="preserve" width="110px" height="123px" version="1.1" style="shape-rendering:geometricPrecision; text-rendering:geometricPrecision; image-rendering:optimizeQuality; fill-rule:evenodd; clip-rule:evenodd"
viewBox="0 0 552 615"
 xmlns:xlink="http://www.w3.org/1999/xlink"
 xmlns:xodm="http://www.corel.com/coreldraw/odm/2003">
 <defs>
  <style type="text/css">
   <![CDATA[
    .fil3 {fill:#00AFEE}
    .fil2 {fill:#3E4095}
    .fil1 {fill:#ED3237}
    .fil0 {fill:#FDFDFD}
   ]]>
  </style>
 </defs>
 <g id="Layer_x0020_1">
  <metadata id="CorelCorpID_0Corel-Layer"/>
  <g id="_1330966506912">
   <path class="fil0" d="M391 515c8,-3 13,-10 23,-7 11,3 6,12 5,21 5,-2 10,-6 17,-2 4,2 8,9 5,15 -3,6 -19,15 -26,20 -17,11 -38,21 -61,28 -28,9 -46,12 -78,12 -28,-1 -54,-4 -78,-12 -62,-20 -119,-63 -149,-120 -6,-11 -27,-50 -25,-63 10,14 18,22 32,33 12,9 25,17 41,24 33,15 69,23 110,16 20,-3 34,-9 50,-15 14,-5 45,-12 46,9 0,16 -20,28 -32,34 -8,4 -15,7 -24,9l-26 7c3,2 5,4 10,6 28,13 66,11 93,-3 26,-13 45,-41 62,-35 11,4 6,19 5,23zm-391 -163l0 -10c0,-51 13,-92 30,-126 11,-23 29,-50 48,-68 11,-11 14,-14 25,-23 23,-18 48,-32 74,-43 18,-7 53,-14 54,-14 2,-2 45,-65 48,-68 3,4 5,8 8,12 3,7 29,53 33,55 1,1 3,1 4,1 10,3 20,4 30,7 15,4 40,14 53,22 4,2 8,4 12,7 22,14 33,22 52,41l18 19c18,24 30,42 42,70 10,24 21,63 21,91 0,50 -5,85 -22,123 -3,8 -7,16 -11,23 -10,18 -12,23 -27,40 -1,2 -20,24 -23,27 -4,3 -5,5 -11,6 -3,2 -3,1 -5,4 -6,12 -19,18 -32,26 -30,21 -89,41 -126,41 -31,0 -51,1 -82,-6 -24,-7 -52,-16 -74,-29 -16,-10 -19,-12 -34,-24 -15,-11 -32,-28 -44,-43 -19,-24 -52,-80 -52,-108 0,-7 3,-9 -1,-14 -7,-11 -8,-25 -8,-39zm239 -272c2,-1 8,-10 10,-13 5,-7 25,-38 29,-41l9 14c3,5 5,9 8,14 6,12 15,21 18,27 1,0 -1,0 2,0l8 1c3,1 6,2 10,2 63,13 121,53 157,105 13,18 24,37 33,62 18,50 20,112 4,164 -10,33 -28,68 -50,93 -4,4 -18,22 -23,23 -4,-6 -3,-8 -9,-13 -2,-2 -4,-3 -7,-4 -5,-1 -4,-1 -6,-5 -3,-6 -5,-9 -10,-11 -6,-3 -12,-2 -18,-4 -1,-5 4,-6 6,-9 3,-3 6,-5 8,-8 41,-42 61,-98 54,-160 -4,-37 -20,-75 -40,-99l-7 -9c-3,-3 -5,-5 -8,-8 -9,-9 -33,-30 -45,-33l13 17c3,6 7,11 11,17 8,11 15,22 23,34 15,22 29,48 33,81 5,36 -1,68 -14,97 -6,15 -25,43 -38,55 -3,3 -9,7 -11,11 -44,-2 -35,27 -76,35 -12,3 -22,4 -34,4 2,-3 15,-11 17,-13 21,-14 17,-24 19,-39 1,-6 3,-20 6,-24 4,-2 16,3 18,-6 1,-4 1,-17 1,-23 0,-11 0,-60 -2,-69 -5,-14 -17,-19 -30,-19 -13,1 -15,1 -15,-8 5,-4 10,-7 14,-14 3,-7 5,-14 5,-22 -3,-38 -46,-45 -63,-22 -10,14 -11,39 2,51 3,2 6,4 8,7 3,3 1,7 -3,8 -8,2 -39,-5 -42,27 0,6 -1,73 0,81 2,12 10,7 19,9 2,4 3,12 3,17l-23 6 1 -14c-3,-3 -8,-3 -10,-11 -2,-7 -1,-55 -1,-64 0,-22 -2,-39 13,-52 2,-2 4,-3 6,-4 3,-2 5,-2 7,-4 -2,-5 -8,-8 -14,-9 -6,0 -13,0 -17,-3 0,-7 5,-5 11,-15 3,-5 4,-13 3,-21 -6,-34 -50,-30 -54,0 -3,27 16,29 15,35 -3,10 -36,-6 -37,28 0,11 -1,55 2,62 2,6 6,4 11,5 7,3 1,30 8,39 2,2 3,3 4,5 8,9 26,23 29,26 -6,4 -33,1 -40,-3 -8,-4 -26,-32 -31,-42 -15,-27 -23,-63 -20,-98 6,-58 31,-83 56,-123 8,-12 17,-23 24,-35 -12,4 -35,24 -45,35l-12 13c-50,63 -59,153 -17,222 3,5 7,10 9,16 -15,0 -91,-55 -97,-77 -6,-18 -2,-62 1,-81 11,-66 50,-128 99,-164 23,-18 56,-36 87,-44l35 -8z"/>
   <path class="fil1" d="M342 480c-2,-9 -3,-18 -3,-28 13,-4 11,-20 12,-31 0,-18 2,-69 -4,-83 -3,-8 -8,-13 -15,-17l-7 -4c0,0 -1,0 -1,0 4,-10 19,-9 25,-9 16,-1 -1,-12 -4,-17 -9,-15 -5,-38 14,-44 21,-7 36,8 36,27 1,12 -4,19 -10,24 -12,12 5,9 14,11 21,3 19,26 18,47 0,10 1,23 0,33 0,6 -2,8 -6,9 -7,3 -9,0 -10,8 -3,20 5,20 -11,38l-17 16c-2,2 -7,6 -10,8 -3,3 -16,11 -21,12zm-87 -363c11,0 32,-2 42,0l1 34c4,2 27,1 34,1l0 41 -35 0c-1,8 2,28 -1,34 -1,1 -39,3 -40,-1 0,0 0,0 0,0 0,-1 -1,-1 -1,-1l0 -6c0,-3 0,-6 0,-9 0,-5 0,-11 0,-17l-34 0 0 -41 32 -1c2,0 1,0 2,0l0 -34zm-16 -37c-1,3 -58,86 -60,88 -7,12 -16,23 -24,35 -25,40 -50,65 -56,123 -3,35 5,71 20,98 5,10 23,38 31,42 7,4 34,7 40,3 -3,-3 -21,-17 -29,-26 -1,-2 -2,-3 -4,-5 -7,-9 -1,-36 -8,-39 -5,-1 -9,1 -11,-5 -3,-7 -2,-51 -2,-62 1,-34 34,-18 37,-28 1,-6 -18,-8 -15,-35 4,-30 48,-34 54,0 1,8 0,16 -3,21 -6,10 -11,8 -11,15 4,3 11,3 17,3 6,1 12,4 14,9 -2,2 -4,2 -7,4 -2,1 -4,2 -6,4 -15,13 -13,30 -13,52 0,9 -1,57 1,64 2,8 7,8 10,11l-1 14 23 -6c0,-5 -1,-13 -3,-17 -9,-2 -17,3 -19,-9 -1,-8 0,-75 0,-81 3,-32 34,-25 42,-27 4,-1 6,-5 3,-8 -2,-3 -5,-5 -8,-7 -13,-12 -12,-37 -2,-51 17,-23 60,-16 63,22 0,8 -2,15 -5,22 -4,7 -9,10 -14,14 0,9 2,9 15,8 13,0 25,5 30,19 2,9 2,58 2,69 0,6 0,19 -1,23 -2,9 -14,4 -18,6 -3,4 -5,18 -6,24 -2,15 2,25 -19,39 -2,2 -15,10 -17,13 12,0 22,-1 34,-4 41,-8 32,-37 76,-35 2,-4 8,-8 11,-11 13,-12 32,-40 38,-55 13,-29 19,-61 14,-97 -4,-33 -18,-59 -33,-81 -8,-12 -15,-23 -23,-34 -4,-6 -8,-11 -11,-17l-13 -17c-2,-3 -5,-7 -7,-10 -7,-10 -49,-70 -52,-77 -3,-6 -12,-15 -18,-27 -3,-5 -5,-9 -8,-14l-9 -14c-4,3 -24,34 -29,41 -2,3 -8,12 -10,13z"/>
   <path class="fil2" d="M419 529c1,-9 6,-18 -5,-21 -10,-3 -15,4 -23,7 1,-4 6,-19 -5,-23 -17,-6 -36,22 -62,35 -27,14 -65,16 -93,3 -5,-2 -7,-4 -10,-6l26 -7c9,-2 16,-5 24,-9 12,-6 32,-18 32,-34 -1,-21 -32,-14 -46,-9 -16,6 -30,12 -50,15 -41,7 -77,-1 -110,-16 -16,-7 -29,-15 -41,-24 -14,-11 -22,-19 -32,-33 -2,13 19,52 25,63 30,57 87,100 149,120 24,8 50,11 78,12 32,0 50,-3 78,-12 23,-7 44,-17 61,-28 7,-5 23,-14 26,-20 3,-6 -1,-13 -5,-15 -7,-4 -12,0 -17,2z"/>
   <path class="fil3" d="M488 465c2,2 2,3 3,5 -2,2 -2,2 -2,4l-6 0c1,-2 1,-3 4,-4 -1,-3 -1,-2 1,-5zm-31 -4c2,2 17,12 21,15 -1,3 -2,4 -3,6l-8 -1c2,1 3,3 5,3 0,3 -2,5 -3,7 -2,-1 -25,-17 -26,-19 0,-1 0,-2 1,-3 2,-2 1,-1 3,-3 3,4 12,9 18,9 -2,-2 -12,-8 -16,-11 0,-2 9,-17 11,-19 4,2 10,6 14,9 4,2 9,5 13,8 -1,4 -5,8 -7,13l-5 -3 3 -7c-1,-1 -2,-2 -5,-3l-3 6 -5 -3 3 -6 -6 -5c-2,2 -4,5 -5,7zm-5 -9l-3 -2 2 -4 4 2 -3 4zm48 -15l-3 6 -3 0c0,0 1,0 1,0 2,1 1,0 2,2l-3 5c-5,-1 -10,-5 -15,-5 5,5 10,6 13,9l-3 6c-6,-3 -9,-5 -13,-9 -2,-2 -3,-5 -6,-6 -1,-2 -5,-3 -7,-5l3 -6c6,2 4,4 12,4 6,1 10,3 14,4 -13,-6 -28,-10 -20,-22 4,-6 11,-3 16,0 4,2 14,5 16,8 0,2 -2,4 -2,6 -4,-2 -9,-4 -12,-6 -3,-1 -11,-6 -13,-4 -2,3 8,6 10,7 4,2 9,5 13,6zm-17 -31c0,7 9,4 9,4 1,0 2,1 4,1l-3 8c-3,0 -16,-4 -18,-6 1,-2 1,-3 2,-3 0,-2 0,-10 5,-11 5,-2 14,2 18,4 5,2 11,3 9,11 -1,8 -6,8 -14,6l2 -7c3,1 4,2 6,0 0,-3 -1,-2 -9,-4 -3,-2 -8,-4 -11,-3zm2 -28l31 7c-1,8 -1,6 -9,8 2,1 5,1 7,2l-2 7c-5,-1 -28,-5 -31,-7l1 -7c7,0 14,4 21,1l-20 -4 2 -7zm10 -16c6,1 7,1 7,-1 0,-3 -2,-2 -7,-3 -3,0 -6,0 -8,0l1 -7 32 2 -1 8 -11 -1 0 3 11 1 -1 7 -32 -3 1 -6c2,-1 5,0 8,0zm18 -19l7 0 0 8 -32 -1 0 -7c7,0 15,0 20,-3l-20 0 0 -8 33 1 -1 7 -7 3zm7 -22l1 7 -33 3 0 -7 32 -3zm2 2c2,-1 3,-2 5,-3l0 5 -4 1 -1 -3zm-2 -4l-6 1 -1 -4 -26 3 -1 -7 26 -3 0 -4 6 -1 2 15zm-4 -25c-4,1 -14,3 -19,4 -8,2 -13,2 -15,-6 -1,-9 5,-10 12,-12 6,-1 12,-3 18,-4l2 7c-2,1 -17,4 -21,5 -6,1 -4,1 -4,3 3,3 20,-4 26,-4l1 7zm-39 -29c11,-2 17,-6 31,-3l1 7c-10,8 -13,10 -29,14l-1 -7c5,-1 3,-1 4,-2 -1,-4 -1,-2 -6,-2l-2 -5c1,-1 1,-1 2,-2zm33 -3l5 1 2 4c-5,0 -5,0 -7,-5zm-33 3c-2,0 -2,0 -3,-2 0,-1 -1,-3 -1,-4 3,-1 19,-8 21,-10 -9,-2 -15,4 -23,7 -1,-2 -2,-4 -3,-7 8,-2 18,-7 21,-13l-22 10 -3 -6 29 -14c4,12 6,6 -1,16l9 2 4 8 -28 13zm-37 -60c2,-2 23,-18 26,-20 2,3 7,9 8,12l-4 3c-2,-2 -3,-4 -5,-5 -2,1 -2,1 -4,3 1,1 3,3 4,5l-5 3c0,0 0,0 0,0 -2,-2 -2,-3 -4,-4 -2,1 -5,3 -6,5 0,1 3,5 4,6 5,-2 18,-13 23,-14 1,2 3,4 3,6 -1,2 -3,4 -4,7l7 -4 3 6c-4,2 -20,13 -27,17l-3 -6c5,-4 12,-7 14,-14l-16 11c-2,-1 -11,-14 -14,-17zm29 -20l5 -1c1,2 2,2 3,4 0,3 -1,4 -2,5 -1,-2 -2,-2 -2,-5 -3,0 -3,-1 -4,-3zm11 -3c2,2 2,2 3,5l-6 0 -1 -3 4 -2zm-45 16c6,-5 18,-16 24,-21 2,2 3,3 4,5 -1,1 -1,2 -3,3l-21 19c-2,-3 -3,-3 -4,-6zm-13 -12c1,-3 9,-10 11,-12 3,-2 10,-10 12,-11l5 5c-6,7 -10,5 -7,10 4,-1 6,-5 8,-7 3,1 4,3 6,4l-11 12c-3,2 -10,8 -12,11 -2,-2 -4,-3 -5,-5l10 -11 -2 -2c-2,2 -8,7 -10,10 -2,-1 -3,-3 -5,-4zm-14 -53c2,1 4,2 5,4 -4,7 -11,15 -14,21l6 4c2,-3 5,-6 8,-10 2,-3 6,-7 7,-10 2,1 7,4 8,6 9,7 1,12 -2,15 -2,1 -1,2 -3,4 -6,13 -12,8 -18,3l-15 -11 18 -26zm-12 14c-2,6 -6,13 -15,8 -8,-4 -3,-12 0,-18 3,-5 6,-14 14,-12 13,4 5,15 4,17 -2,0 -2,0 -3,-1l-3 -3c0,0 2,-3 2,-3 1,-4 0,-2 -1,-3 -2,-2 -7,9 -9,13 0,0 -1,2 -1,2 0,1 0,1 0,2l0 1c3,0 2,0 4,-2 1,-2 1,-3 2,-4 3,1 5,2 6,3zm-24 21c12,3 36,24 45,33 3,3 5,5 8,8l7 9c20,24 36,62 40,99 7,62 -13,118 -54,160 -2,3 -5,5 -8,8 -2,3 -7,4 -6,9 6,2 12,1 18,4 5,2 7,5 10,11 2,4 1,4 6,5 3,1 5,2 7,4 6,5 5,7 9,13 5,-1 19,-19 23,-23 22,-25 40,-60 50,-93 16,-52 14,-114 -4,-164 -9,-25 -20,-44 -33,-62 -36,-52 -94,-92 -157,-105 -4,0 -7,-1 -10,-2l-8 -1c-3,0 -1,0 -2,0 3,7 45,67 52,77 2,3 5,7 7,10z"/>
   <path class="fil3" d="M49 349c0,3 -2,3 7,3 3,0 6,0 9,0l2 16c-5,1 -13,0 -15,5 2,1 4,0 8,0l8 0 1 6c-4,2 -30,5 -35,5l-1 -7c4,-1 10,-1 13,-3 -6,-2 -8,-1 -14,-2 -1,-6 -3,-10 8,-7 5,1 4,2 8,0 6,-3 12,-3 16,-5l-34 0 0 -8 10 0c3,-1 1,1 3,-1 -1,-3 0,-2 -2,-3l-11 0 0 -8 35 0 1 8 -13 0c-5,0 -3,1 -4,1zm-20 -17c-1,-12 6,-13 16,-13 9,0 20,-1 20,8 2,12 -5,13 -16,12 -8,0 -19,2 -20,-7zm39 -24l-6 -1 -1 3 6 2 -1 7c-6,0 -17,-2 -23,-4 -2,-1 -7,-3 -9,-4 -4,-3 -3,-4 -2,-9 8,-6 27,-3 37,-2l-1 8zm-15 -35c-3,-1 -5,-2 -8,-1 0,4 2,3 10,5 4,1 10,4 12,2 2,-3 -5,-4 -8,-4l2 -8c8,1 16,4 13,13 -2,11 -10,8 -19,6 -7,-2 -17,-3 -17,-11 0,-11 7,-14 17,-10l-2 8zm-8 -18c0,-4 2,-9 4,-11 4,-3 9,-1 13,0 7,3 19,5 19,12 1,4 -2,10 -4,11 -6,4 -30,-5 -32,-12zm2 -12c-2,4 -1,3 -4,5 1,3 1,2 -1,6 -5,-5 -4,-4 -2,-10l7 -1zm26 -6l15 8c-1,3 -2,4 -4,7l-31 -16c0,-2 1,-2 1,-4l2 -3 10 0c-2,-1 -6,-3 -8,-4l4 -7 32 16 -4 7c-8,-2 -11,-7 -22,-7 2,2 3,2 5,3zm31 -20c-1,1 0,0 -1,2 -4,4 -1,2 -3,6 -6,11 -16,2 -25,-4 -5,-3 -12,-6 -7,-15 4,-7 9,-7 17,-2l-4 6c-3,-1 -3,-1 -5,-1 -2,0 0,-1 -1,0 -3,3 1,4 8,8 2,1 7,6 10,5 2,-2 2,-3 0,-4 -7,-6 -4,0 -12,-5 2,-3 4,-5 5,-8 2,1 17,10 18,12zm12 -14c-2,2 -3,4 -6,5 -4,-5 -22,-18 -26,-23 6,-8 6,-5 14,-3 -2,-2 -2,-2 -6,-5l5 -6c1,1 0,0 2,1l24 22c-1,2 -3,4 -5,5 -2,-2 -13,-11 -19,-12l17 16zm48 -38c2,-1 2,-1 4,-2l3 4c-2,1 -3,2 -4,2l-3 -4zm-25 15c-2,2 -3,1 -4,3 -1,1 -1,1 -3,4 -8,9 -15,-2 -22,-9 -4,-4 -11,-10 -4,-17 7,-7 11,-4 17,2l-6 5c-3,-2 -2,-4 -6,-3 -1,3 1,4 3,6l8 9c4,3 5,2 6,1 1,-2 0,-2 -1,-4 -4,-4 -3,-3 -5,-3l-1 0c-2,-1 -2,-2 -3,-3 1,-2 4,-5 6,-7 2,2 14,13 15,16zm-15 -33l3 2c0,1 1,1 1,2 1,2 3,3 4,5l3 -2c-2,-4 -6,-6 -7,-10 1,-2 3,-3 5,-5 2,2 5,5 6,8 3,3 15,18 16,20 -1,2 -4,4 -6,5 -3,-4 -6,-10 -10,-13l-3 2c2,3 8,10 10,13 -1,2 -4,4 -6,5 -2,-2 -15,-20 -19,-24 -1,-1 -1,-2 -1,-2 -2,-2 -1,0 -2,-2 2,-2 4,-3 6,-4zm14 -11c1,-1 11,-8 13,-9l3 6c-2,2 -3,2 -6,5 1,2 2,3 3,4l7 -4 3 6c-2,1 -4,2 -6,4l5 8 8 -4 3 5c-3,2 -11,8 -14,9 -4,-8 -16,-23 -19,-30zm5 -12l5 2c-2,2 -3,3 -6,2 -2,4 0,3 -5,5l0 -6 6 -3zm36 44c2,-2 59,-85 60,-88l-35 8c-31,8 -64,26 -87,44 -49,36 -88,98 -99,164 -3,19 -7,63 -1,81 6,22 82,77 97,77 -2,-6 -6,-11 -9,-16 -42,-69 -33,-159 17,-222l12 -13c10,-11 33,-31 45,-35z"/>
   <path class="fil0" d="M342 480c5,-1 18,-9 21,-12 3,-2 8,-6 10,-8l17 -16c16,-18 8,-18 11,-38 1,-8 3,-5 10,-8 4,-1 6,-3 6,-9 1,-10 0,-23 0,-33 1,-21 3,-44 -18,-47 -9,-2 -26,1 -14,-11 6,-5 11,-12 10,-24 0,-19 -15,-34 -36,-27 -19,6 -23,29 -14,44 3,5 20,16 4,17 -6,0 -21,-1 -25,9 0,0 1,0 1,0l7 4c7,4 12,9 15,17 6,14 4,65 4,83 -1,11 1,27 -12,31 0,10 1,19 3,28z"/>
   <path class="fil0" d="M255 117l0 34c-1,0 0,0 -2,0l-32 1 0 41 34 0c0,6 0,12 0,17 0,3 0,6 0,9l0 6c0,0 1,0 1,1 0,0 0,0 0,0 1,4 39,2 40,1 3,-6 0,-26 1,-34l35 0 0 -41c-7,0 -30,1 -34,-1l-1 -34c-10,-2 -31,0 -42,0z"/>
   <path class="fil0" d="M49 349c1,0 -1,-1 4,-1l13 0 -1 -8 -35 0 0 8 11 0c2,1 1,0 2,3 -2,2 0,0 -3,1l-10 0 0 8 34 0c-4,2 -10,2 -16,5 -4,2 -3,1 -8,0 -11,-3 -9,1 -8,7 6,1 8,0 14,2 -3,2 -9,2 -13,3l1 7c5,0 31,-3 35,-5l-1 -6 -8 0c-4,0 -6,1 -8,0 2,-5 10,-4 15,-5l-2 -16c-3,0 -6,0 -9,0 -9,0 -7,0 -7,-3z"/>
   <path class="fil0" d="M457 461c1,-2 3,-5 5,-7l6 5 -3 6 5 3 3 -6c3,1 4,2 5,3l-3 7 5 3c2,-5 6,-9 7,-13 -4,-3 -9,-6 -13,-8 -4,-3 -10,-7 -14,-9 -2,2 -11,17 -11,19 4,3 14,9 16,11 -6,0 -15,-5 -18,-9 -2,2 -1,1 -3,3 -1,1 -1,2 -1,3 1,2 24,18 26,19 1,-2 3,-4 3,-7 -2,0 -3,-2 -5,-3l8 1c1,-2 2,-3 3,-6 -4,-3 -19,-13 -21,-15z"/>
   <path class="fil0" d="M440 205c3,3 12,16 14,17l16 -11c-2,7 -9,10 -14,14l3 6c7,-4 23,-15 27,-17l-3 -6 -7 4c1,-3 3,-5 4,-7 0,-2 -2,-4 -3,-6 -5,1 -18,12 -23,14 -1,-1 -4,-5 -4,-6 1,-2 4,-4 6,-5 2,1 2,2 4,4 0,0 0,0 0,0l5 -3c-1,-2 -3,-4 -4,-5 2,-2 2,-2 4,-3 2,1 3,3 5,5l4 -3c-1,-3 -6,-9 -8,-12 -3,2 -24,18 -26,20z"/>
   <path class="fil0" d="M500 437c-4,-1 -9,-4 -13,-6 -2,-1 -12,-4 -10,-7 2,-2 10,3 13,4 3,2 8,4 12,6 0,-2 2,-4 2,-6 -2,-3 -12,-6 -16,-8 -5,-3 -12,-6 -16,0 -8,12 7,16 20,22 -4,-1 -8,-3 -14,-4 -8,0 -6,-2 -12,-4l-3 6c2,2 6,3 7,5 3,1 4,4 6,6 4,4 7,6 13,9l3 -6c-3,-3 -8,-4 -13,-9 5,0 10,4 15,5l3 -5c-1,-2 0,-1 -2,-2 0,0 -1,0 -1,0l3 0 3 -6z"/>
   <path class="fil0" d="M410 167c1,-2 1,-2 3,-4 2,-2 2,-2 3,-2 2,2 0,8 -6,6zm9 -11c1,-2 2,-4 4,-5 3,4 0,8 -4,5zm-29 3l15 11c6,5 12,10 18,-3 2,-2 1,-3 3,-4 3,-3 11,-8 2,-15 -1,-2 -6,-5 -8,-6 -1,3 -5,7 -7,10 -3,4 -6,7 -8,10l-6 -4c3,-6 10,-14 14,-21 -1,-2 -3,-3 -5,-4l-18 26z"/>
   <path class="fil0" d="M477 265l28 -13 -4 -8 -9 -2c7,-10 5,-4 1,-16l-29 14 3 6 22 -10c-3,6 -13,11 -21,13 1,3 2,5 3,7 8,-3 14,-9 23,-7 -2,2 -18,9 -21,10 0,1 1,3 1,4 1,2 1,2 3,2z"/>
   <path class="fil0" d="M58 225c2,1 6,3 8,4l-10 0 -2 3c0,2 -1,2 -1,4l31 16c2,-3 3,-4 4,-7l-15 -8c-2,-1 -3,-1 -5,-3 11,0 14,5 22,7l4 -7 -32 -16 -4 7z"/>
   <path class="fil0" d="M92 177c4,3 4,3 6,5 -8,-2 -8,-5 -14,3 4,5 22,18 26,23 3,-1 4,-3 6,-5l-17 -16c6,1 17,10 19,12 2,-1 4,-3 5,-5l-24 -22c-2,-1 -1,0 -2,-1l-5 6z"/>
   <path class="fil0" d="M128 144c1,4 5,6 7,10l-3 2c-1,-2 -3,-3 -4,-5 0,-1 -1,-1 -1,-2l-3 -2c-2,1 -4,2 -6,4 1,2 0,0 2,2 0,0 0,1 1,2 4,4 17,22 19,24 2,-1 5,-3 6,-5 -2,-3 -8,-10 -10,-13l3 -2c4,3 7,9 10,13 2,-1 5,-3 6,-5 -1,-2 -13,-17 -16,-20 -1,-3 -4,-6 -6,-8 -2,2 -4,3 -5,5z"/>
   <path class="fil0" d="M64 254c9,3 10,2 10,6 -2,1 -23,-5 -21,-8 1,-3 6,0 11,2zm-19 1c2,7 26,16 32,12 2,-1 5,-7 4,-11 0,-7 -12,-9 -19,-12 -4,-1 -9,-3 -13,0 -2,2 -4,7 -4,11z"/>
   <path class="fil0" d="M59 328c0,5 -1,3 -12,3 -11,0 -11,1 -11,-3 2,-1 20,-1 23,0zm-30 4c1,9 12,7 20,7 11,1 18,0 16,-12 0,-9 -11,-8 -20,-8 -10,0 -17,1 -16,13z"/>
   <path class="fil0" d="M139 180c-1,-3 -13,-14 -15,-16 -2,2 -5,5 -6,7 1,1 1,2 3,3l1 0c2,0 1,-1 5,3 1,2 2,2 1,4 -1,1 -2,2 -6,-1l-8 -9c-2,-2 -4,-3 -3,-6 4,-1 3,1 6,3l6 -5c-6,-6 -10,-9 -17,-2 -7,7 0,13 4,17 7,7 14,18 22,9 2,-3 2,-3 3,-4 1,-2 2,-1 4,-3z"/>
   <path class="fil0" d="M104 217c-1,-2 -16,-11 -18,-12 -1,3 -3,5 -5,8 8,5 5,-1 12,5 2,1 2,2 0,4 -3,1 -8,-4 -10,-5 -7,-4 -11,-5 -8,-8 1,-1 -1,0 1,0 2,0 2,0 5,1l4 -6c-8,-5 -13,-5 -17,2 -5,9 2,12 7,15 9,6 19,15 25,4 2,-4 -1,-2 3,-6 1,-2 0,-1 1,-2z"/>
   <path class="fil0" d="M54 310c-4,-1 -11,-2 -14,-4 5,-1 10,0 15,0l-1 4zm15 -10c-10,-1 -29,-4 -37,2 -1,5 -2,6 2,9 2,1 7,3 9,4 6,2 17,4 23,4l1 -7 -6 -2 1 -3 6 1 1 -8z"/>
   <path class="fil0" d="M55 265c-10,-4 -17,-1 -17,10 0,8 10,9 17,11 9,2 17,5 19,-6 3,-9 -5,-12 -13,-13l-2 8c3,0 10,1 8,4 -2,2 -8,-1 -12,-2 -8,-2 -10,-1 -10,-5 3,-1 5,0 8,1l2 -8z"/>
   <path class="fil0" d="M481 395c3,2 26,6 31,7l2 -7c-2,-1 -5,-1 -7,-2 8,-2 8,0 9,-8l-31 -7 -2 7 20 4c-7,3 -14,-1 -21,-1l-1 7z"/>
   <path class="fil0" d="M488 340l20 0c-5,3 -13,3 -20,3l0 7 32 1 0 -8 -7 0 7 -3 1 -7 -33 -1 0 8z"/>
   <path class="fil0" d="M487 358c2,0 5,0 8,0 5,1 7,0 7,3 0,2 -1,2 -7,1 -3,0 -6,-1 -8,0l-1 6 32 3 1 -7 -11 -1 0 -3 11 1 1 -8 -32 -2 -1 7z"/>
   <path class="fil0" d="M422 186c2,1 3,3 5,4 2,-3 8,-8 10,-10l2 2 -10 11c1,2 3,3 5,5 2,-3 9,-9 12,-11l11 -12c-2,-1 -3,-3 -6,-4 -2,2 -4,6 -8,7 -3,-5 1,-3 7,-10l-5 -5c-2,1 -9,9 -12,11 -2,2 -10,9 -11,12z"/>
   <path class="fil0" d="M483 406c3,-1 8,1 11,3 8,2 9,1 9,4 -2,2 -3,1 -6,0l-2 7c8,2 13,2 14,-6 2,-8 -4,-9 -9,-11 -4,-2 -13,-6 -18,-4 -5,1 -5,9 -5,11 -1,0 -1,1 -2,3 2,2 15,6 18,6l3 -8c-2,0 -3,-1 -4,-1 0,0 -9,3 -9,-4z"/>
   <path class="fil0" d="M516 294l-1 -7c-6,0 -23,7 -26,4 0,-2 -2,-2 4,-3 4,-1 19,-4 21,-5l-2 -7c-6,1 -12,3 -18,4 -7,2 -13,3 -12,12 2,8 7,8 15,6 5,-1 15,-3 19,-4z"/>
   <path class="fil0" d="M138 136c3,7 15,22 19,30 3,-1 11,-7 14,-9l-3 -5 -8 4 -5 -8c2,-2 4,-3 6,-4l-3 -6 -7 4c-1,-1 -2,-2 -3,-4 3,-3 4,-3 6,-5l-3 -6c-2,1 -12,8 -13,9z"/>
   <path class="fil0" d="M489 270c3,-2 8,-3 12,-3 -1,2 -3,2 -5,4 -3,0 -4,1 -7,2l0 -3zm-12 -5c-1,1 -1,1 -2,2l2 5c5,0 5,-2 6,2 -1,1 1,1 -4,2l1 7c16,-4 19,-6 29,-14l-1 -7c-14,-3 -20,1 -31,3z"/>
   <path class="fil0" d="M396 147c-1,-1 -3,-2 -6,-3 -1,1 -1,2 -2,4 -2,2 -1,2 -4,2l0 -1c0,-1 0,-1 0,-2 0,0 1,-2 1,-2 2,-4 7,-15 9,-13 1,1 2,-1 1,3 0,0 -2,3 -2,3l3 3c1,1 1,1 3,1 1,-2 9,-13 -4,-17 -8,-2 -11,7 -14,12 -3,6 -8,14 0,18 9,5 13,-2 15,-8z"/>
   <polygon class="fil0" points="512,305 512,309 486,312 487,319 513,316 514,320 520,319 518,304 "/>
   <path class="fil0" d="M435 198c1,3 2,3 4,6l21 -19c2,-1 2,-2 3,-3 -1,-2 -2,-3 -4,-5 -6,5 -18,16 -24,21z"/>
   <polygon class="fil0" points="488,324 488,331 521,328 520,321 "/>
   <path class="fil3" d="M36 328c0,4 0,3 11,3 11,0 12,2 12,-3 -3,-1 -21,-1 -23,0z"/>
   <path class="fil3" d="M74 260c0,-4 -1,-3 -10,-6 -5,-2 -10,-5 -11,-2 -2,3 19,9 21,8z"/>
   <path class="fil0" d="M40 244c-2,6 -3,5 2,10 2,-4 2,-3 1,-6 3,-2 2,-1 4,-5l-7 1z"/>
   <path class="fil0" d="M137 127l0 6c5,-2 3,-1 5,-5 3,1 4,0 6,-2l-5 -2 -6 3z"/>
   <path class="fil3" d="M54 310l1 -4c-5,0 -10,-1 -15,0 3,2 10,3 14,4z"/>
   <path class="fil0" d="M489 474c0,-2 0,-2 2,-4 -1,-2 -1,-3 -3,-5 -2,3 -2,2 -1,5 -3,1 -3,2 -4,4l6 0z"/>
   <path class="fil0" d="M469 185c1,2 1,3 4,3 0,3 1,3 2,5 1,-1 2,-2 2,-5 -1,-2 -2,-2 -3,-4l-5 1z"/>
   <path class="fil3" d="M489 270l0 3c3,-1 4,-2 7,-2 2,-2 4,-2 5,-4 -4,0 -9,1 -12,3z"/>
   <path class="fil3" d="M410 167c6,2 8,-4 6,-6 -1,0 -1,0 -3,2 -2,2 -2,2 -3,4z"/>
   <path class="fil0" d="M164 165l3 4c1,0 2,-1 4,-2l-3 -4c-2,1 -2,1 -4,2z"/>
   <path class="fil0" d="M517 267l-2 -4 -5 -1c2,5 2,5 7,5z"/>
   <path class="fil0" d="M522 323l1 3 4 -1 0 -5c-2,1 -3,2 -5,3z"/>
   <path class="fil0" d="M476 184l1 3 6 0c-1,-3 -1,-3 -3,-5l-4 2z"/>
   <path class="fil3" d="M419 156c4,3 7,-1 4,-5 -2,1 -3,3 -4,5z"/>
   <polygon class="fil0" points="455,448 451,446 449,450 452,452 "/>
  </g>
 </g>
</svg>
